<svg width="50" height="50" viewBox="0 0 50 50" fill="none" xmlns="http://www.w3.org/2000/svg">
<path d="M25 12.5C19.4431 12.5 15.97 15.2776 14.5808 20.8328C16.6646 18.0552 19.0958 17.0141 21.8742 17.7079C23.4597 18.1038 24.5928 19.2542 25.8474 20.5271C27.8896 22.5997 30.2539 24.9996 35.4192 24.9996C40.9761 24.9996 44.4492 22.222 45.8384 16.6659C43.7545 19.4435 41.3234 20.4854 38.5449 19.7917C36.9604 19.3958 35.8273 18.2453 34.5726 16.9724C32.5296 14.899 30.1644 12.5 25 12.5ZM14.5808 24.9996C9.02388 24.9996 5.55082 27.7772 4.16159 33.3332C6.24543 30.5556 8.67658 29.5137 11.455 30.2083C13.0396 30.6051 14.1727 31.7547 15.4274 33.0267C17.4704 35.1001 19.8355 37.5 25 37.5C30.5569 37.5 34.03 34.7224 35.4192 29.1664C33.3353 31.944 30.9042 32.9859 28.1257 32.2913C26.5403 31.8953 25.4072 30.7449 24.1526 29.4729C22.1104 27.3995 19.7461 24.9996 14.5808 24.9996Z" fill="black"/>
</svg>
